<svg width="98" height="62" viewBox="0 0 98 62" fill="none" xmlns="http://www.w3.org/2000/svg">
<path d="M16.3696 19.8281C14.6606 20.8128 12.5366 21.3052 9.99756 21.3052C7.1818 21.3052 4.96012 20.528 3.33252 18.9736C1.71305 17.4111 0.90332 15.2627 0.90332 12.5283C0.90332 9.77767 1.79036 7.53564 3.56445 5.80225C5.33854 4.06885 7.69857 3.20215 10.6445 3.20215C12.5 3.20215 14.1357 3.4585 15.5518 3.97119V7.66992C14.2008 6.88867 12.5488 6.49805 10.5957 6.49805C8.95996 6.49805 7.62533 7.03109 6.5918 8.09717C5.56641 9.15511 5.05371 10.5711 5.05371 12.3452C5.05371 14.1437 5.51351 15.5353 6.43311 16.52C7.36084 17.5047 8.61003 17.9971 10.1807 17.9971C11.1247 17.9971 11.8734 17.8628 12.4268 17.5942V14.1763H8.92334V11.0269H16.3696V19.8281ZM22.3501 6.52246C21.6991 6.52246 21.166 6.33122 20.751 5.94873C20.3359 5.55811 20.1284 5.08203 20.1284 4.52051C20.1284 3.94271 20.3359 3.4707 20.751 3.10449C21.166 2.73828 21.6991 2.55518 22.3501 2.55518C23.0093 2.55518 23.5423 2.73828 23.9492 3.10449C24.3643 3.4707 24.5718 3.94271 24.5718 4.52051C24.5718 5.10645 24.3643 5.58659 23.9492 5.96094C23.5423 6.33529 23.0093 6.52246 22.3501 6.52246ZM24.2544 21H20.397V8.5H24.2544V21ZM32.4077 19.5474H32.3589V21H28.5015V2.49414H32.3589V10.3799H32.4077C33.3599 8.92318 34.7148 8.19482 36.4727 8.19482C38.084 8.19482 39.325 8.74821 40.1958 9.85498C41.0666 10.9618 41.502 12.4754 41.502 14.396C41.502 16.4793 40.9933 18.1517 39.9761 19.4131C38.9588 20.6745 37.5998 21.3052 35.8989 21.3052C34.3608 21.3052 33.1971 20.7192 32.4077 19.5474ZM32.2979 14.2739V15.5557C32.2979 16.3613 32.5298 17.0286 32.9937 17.5576C33.4575 18.0866 34.0516 18.3511 34.7759 18.3511C35.6548 18.3511 36.3343 18.0133 36.8145 17.3379C37.3027 16.6543 37.5469 15.6899 37.5469 14.4448C37.5469 13.4113 37.3231 12.6056 36.8755 12.0278C36.436 11.4419 35.8053 11.1489 34.9834 11.1489C34.2103 11.1489 33.5674 11.4378 33.0547 12.0156C32.5501 12.5934 32.2979 13.3462 32.2979 14.2739ZM48.9106 19.5474H48.8618V21H45.0044V2.49414H48.8618V10.3799H48.9106C49.8628 8.92318 51.2178 8.19482 52.9756 8.19482C54.5869 8.19482 55.828 8.74821 56.6987 9.85498C57.5695 10.9618 58.0049 12.4754 58.0049 14.396C58.0049 16.4793 57.4963 18.1517 56.479 19.4131C55.4618 20.6745 54.1027 21.3052 52.4019 21.3052C50.8638 21.3052 49.7 20.7192 48.9106 19.5474ZM48.8008 14.2739V15.5557C48.8008 16.3613 49.0327 17.0286 49.4966 17.5576C49.9604 18.0866 50.5545 18.3511 51.2788 18.3511C52.1577 18.3511 52.8372 18.0133 53.3174 17.3379C53.8057 16.6543 54.0498 15.6899 54.0498 14.4448C54.0498 13.4113 53.826 12.6056 53.3784 12.0278C52.939 11.4419 52.3083 11.1489 51.4863 11.1489C50.7132 11.1489 50.0703 11.4378 49.5576 12.0156C49.0531 12.5934 48.8008 13.3462 48.8008 14.2739ZM60.6895 20.6704V17.5454C61.3242 17.9279 61.9549 18.2127 62.5815 18.3999C63.2163 18.5871 63.8145 18.6807 64.376 18.6807C65.0596 18.6807 65.5967 18.5871 65.9873 18.3999C66.3861 18.2127 66.5854 17.9279 66.5854 17.5454C66.5854 17.3013 66.4959 17.0978 66.3169 16.9351C66.1379 16.7723 65.9059 16.6299 65.6211 16.5078C65.3444 16.3857 65.0392 16.2759 64.7056 16.1782C64.3719 16.0806 64.0505 15.9707 63.7412 15.8486C63.2448 15.6615 62.8053 15.4621 62.4229 15.2505C62.0485 15.0308 61.7311 14.7785 61.4707 14.4937C61.2184 14.2088 61.0231 13.8792 60.8848 13.5049C60.7546 13.1305 60.6895 12.687 60.6895 12.1743C60.6895 11.4744 60.84 10.8722 61.1411 10.3677C61.4504 9.86312 61.8573 9.45215 62.3618 9.13477C62.8745 8.80924 63.4564 8.57324 64.1074 8.42676C64.7666 8.27214 65.4502 8.19482 66.1582 8.19482C66.7116 8.19482 67.2731 8.23958 67.8428 8.3291C68.4124 8.41048 68.974 8.53255 69.5273 8.69531V11.6738C69.0391 11.389 68.5142 11.1774 67.9526 11.0391C67.3993 10.8926 66.854 10.8193 66.3169 10.8193C66.0646 10.8193 65.8245 10.8438 65.5967 10.8926C65.377 10.9333 65.1816 10.9984 65.0107 11.0879C64.8398 11.1693 64.7056 11.2791 64.6079 11.4175C64.5103 11.5477 64.4614 11.6982 64.4614 11.8691C64.4614 12.097 64.5347 12.2923 64.6812 12.4551C64.8276 12.6178 65.0189 12.7603 65.2549 12.8823C65.4909 12.9963 65.7513 13.1021 66.0361 13.1997C66.3291 13.2892 66.618 13.3828 66.9028 13.4805C67.4155 13.6595 67.8794 13.8548 68.2944 14.0664C68.7095 14.278 69.0635 14.5262 69.3564 14.811C69.6576 15.0959 69.8854 15.4295 70.04 15.812C70.2028 16.1945 70.2842 16.6502 70.2842 17.1792C70.2842 17.9198 70.1214 18.5545 69.7959 19.0835C69.4785 19.6043 69.0513 20.0316 68.5142 20.3652C67.9852 20.6908 67.3708 20.9268 66.6709 21.0732C65.9792 21.2279 65.259 21.3052 64.5103 21.3052C63.1349 21.3052 61.8613 21.0936 60.6895 20.6704ZM12.4268 43H2.00195V25.4951H5.94482V39.8018H12.4268V43ZM25.8169 43H22.167V41.2056H22.1182C21.2799 42.6053 20.0389 43.3052 18.395 43.3052C17.1825 43.3052 16.2262 42.9634 15.5264 42.2798C14.8346 41.5881 14.4888 40.6685 14.4888 39.521C14.4888 37.0959 15.9251 35.6961 18.7979 35.3218L22.1914 34.8701C22.1914 33.5029 21.4508 32.8193 19.9697 32.8193C18.4805 32.8193 17.0645 33.2629 15.7217 34.1499V31.2446C16.2588 30.9679 16.9912 30.7238 17.9189 30.5122C18.8548 30.3006 19.7052 30.1948 20.4702 30.1948C24.0347 30.1948 25.8169 31.973 25.8169 35.5293V43ZM22.1914 37.9219V37.0796L19.9209 37.3726C18.6676 37.5353 18.041 38.1009 18.041 39.0693C18.041 39.5088 18.1916 39.8709 18.4927 40.1558C18.8019 40.4325 19.217 40.5708 19.7378 40.5708C20.4621 40.5708 21.0521 40.3226 21.5078 39.8262C21.9635 39.3216 22.1914 38.6868 22.1914 37.9219ZM31.8218 28.5225C31.1707 28.5225 30.6377 28.3312 30.2227 27.9487C29.8076 27.5581 29.6001 27.082 29.6001 26.5205C29.6001 25.9427 29.8076 25.4707 30.2227 25.1045C30.6377 24.7383 31.1707 24.5552 31.8218 24.5552C32.481 24.5552 33.014 24.7383 33.4209 25.1045C33.8359 25.4707 34.0435 25.9427 34.0435 26.5205C34.0435 27.1064 33.8359 27.5866 33.4209 27.9609C33.014 28.3353 32.481 28.5225 31.8218 28.5225ZM33.7261 43H29.8687V30.5H33.7261V43ZM50.2046 43H46.3472V41.2788H46.2983C45.4194 42.6297 44.1296 43.3052 42.4287 43.3052C40.8662 43.3052 39.6089 42.7559 38.6567 41.6572C37.7046 40.5505 37.2285 39.0083 37.2285 37.0308C37.2285 34.9637 37.7534 33.3076 38.8032 32.0625C39.853 30.8174 41.2284 30.1948 42.9292 30.1948C44.5405 30.1948 45.6636 30.7726 46.2983 31.9282H46.3472V24.4941H50.2046V43ZM46.4204 36.9209V35.981C46.4204 35.1672 46.1844 34.4917 45.7124 33.9546C45.2404 33.4175 44.626 33.1489 43.8691 33.1489C43.0146 33.1489 42.3473 33.4867 41.8672 34.1621C41.387 34.8294 41.147 35.749 41.147 36.9209C41.147 38.0195 41.3789 38.8659 41.8428 39.46C42.3066 40.054 42.9495 40.3511 43.7715 40.3511C44.5527 40.3511 45.1875 40.0378 45.6758 39.4111C46.1722 38.7845 46.4204 37.9544 46.4204 36.9209ZM58.3091 43H54.4517V24.4941H58.3091V43ZM73.7866 37.8486H65.6323C65.7625 39.6634 66.9059 40.5708 69.0625 40.5708C70.4378 40.5708 71.6463 40.2453 72.688 39.5942V42.3774C71.5324 42.9959 70.0309 43.3052 68.1836 43.3052C66.1654 43.3052 64.5988 42.7477 63.4839 41.6328C62.369 40.5098 61.8115 38.9473 61.8115 36.9453C61.8115 34.8701 62.4137 33.2262 63.6182 32.0137C64.8226 30.8011 66.3037 30.1948 68.0615 30.1948C69.8844 30.1948 71.2923 30.736 72.2852 31.8184C73.2861 32.9007 73.7866 34.3696 73.7866 36.2251V37.8486ZM70.21 35.4805C70.21 33.6901 69.4857 32.7949 68.0371 32.7949C67.4186 32.7949 66.8815 33.0513 66.4258 33.564C65.9782 34.0767 65.7056 34.7155 65.6079 35.4805H70.21ZM85.2358 33.979C84.772 33.7267 84.2308 33.6006 83.6123 33.6006C82.7741 33.6006 82.119 33.9098 81.647 34.5283C81.175 35.1387 80.939 35.9728 80.939 37.0308V43H77.0815V30.5H80.939V32.8193H80.9878C81.5981 31.1266 82.6968 30.2803 84.2837 30.2803C84.6906 30.2803 85.008 30.3291 85.2358 30.4268V33.979Z" fill="white"/>
<path d="M7.25195 56.6777C6.68262 56.9785 5.97363 57.1289 5.125 57.1289C4.0293 57.1289 3.15202 56.7762 2.49316 56.0708C1.83431 55.3654 1.50488 54.4398 1.50488 53.2939C1.50488 52.0622 1.87549 51.0667 2.6167 50.3076C3.35791 49.5485 4.29785 49.1689 5.43652 49.1689C6.16699 49.1689 6.77214 49.2746 7.25195 49.4858V50.4473C6.70052 50.1393 6.0918 49.9854 5.42578 49.9854C4.54134 49.9854 3.8234 50.2808 3.27197 50.8716C2.72412 51.4624 2.4502 52.252 2.4502 53.2402C2.4502 54.1784 2.70622 54.9268 3.21826 55.4854C3.73389 56.0404 4.40885 56.3179 5.24316 56.3179C6.0166 56.3179 6.6862 56.146 7.25195 55.8022V56.6777ZM11.991 57.1289C11.1782 57.1289 10.5282 56.8729 10.0413 56.3608C9.55787 55.8452 9.31617 55.1631 9.31617 54.3145C9.31617 53.3906 9.56861 52.6691 10.0735 52.1499C10.5784 51.6307 11.2605 51.3711 12.1199 51.3711C12.9399 51.3711 13.579 51.6235 14.0374 52.1284C14.4993 52.6333 14.7302 53.3333 14.7302 54.2285C14.7302 55.1058 14.4814 55.8094 13.9837 56.3394C13.4895 56.8657 12.8253 57.1289 11.991 57.1289ZM12.0554 52.1123C11.4897 52.1123 11.0421 52.3057 10.7127 52.6924C10.3832 53.0755 10.2185 53.6055 10.2185 54.2822C10.2185 54.9339 10.385 55.4478 10.718 55.8237C11.051 56.1997 11.4968 56.3877 12.0554 56.3877C12.6248 56.3877 13.0616 56.2033 13.366 55.8345C13.6739 55.4657 13.8279 54.9411 13.8279 54.2607C13.8279 53.5732 13.6739 53.0433 13.366 52.6709C13.0616 52.2985 12.6248 52.1123 12.0554 52.1123ZM21.6929 57H20.812V53.8633C20.812 52.696 20.3859 52.1123 19.5337 52.1123C19.0933 52.1123 18.728 52.2788 18.438 52.6118C18.1515 52.9412 18.0083 53.3584 18.0083 53.8633V57H17.1275V51.5H18.0083V52.4131H18.0298C18.4452 51.7184 19.0467 51.3711 19.8345 51.3711C20.4361 51.3711 20.8962 51.5662 21.2149 51.9565C21.5335 52.3433 21.6929 52.9036 21.6929 53.6377V57ZM24.0149 56.8013V55.856C24.4947 56.2104 25.0229 56.3877 25.5994 56.3877C26.3728 56.3877 26.7596 56.1299 26.7596 55.6143C26.7596 55.4674 26.7255 55.3439 26.6575 55.2437C26.593 55.1398 26.5035 55.0485 26.3889 54.9697C26.2779 54.891 26.1455 54.8211 25.9915 54.7603C25.8411 54.6958 25.6782 54.6296 25.5027 54.5615C25.2592 54.4648 25.0444 54.3682 24.8582 54.2715C24.6756 54.1712 24.5216 54.0602 24.3963 53.9385C24.2745 53.8132 24.1814 53.6717 24.117 53.5142C24.0561 53.3566 24.0257 53.1722 24.0257 52.9609C24.0257 52.7031 24.0847 52.4757 24.2029 52.2788C24.3211 52.0783 24.4786 51.9118 24.6756 51.7793C24.8725 51.6432 25.0963 51.5412 25.347 51.4731C25.6012 51.4051 25.8626 51.3711 26.1311 51.3711C26.6074 51.3711 27.0335 51.4535 27.4095 51.6182V52.5098C27.0048 52.2448 26.5393 52.1123 26.013 52.1123C25.8483 52.1123 25.6997 52.132 25.5672 52.1714C25.4347 52.2072 25.3201 52.2591 25.2234 52.3271C25.1303 52.3952 25.0569 52.4775 25.0032 52.5742C24.9531 52.6673 24.928 52.7712 24.928 52.8857C24.928 53.029 24.9531 53.1489 25.0032 53.2456C25.0569 53.3423 25.1339 53.4282 25.2342 53.5034C25.3344 53.5786 25.4562 53.6466 25.5994 53.7075C25.7426 53.7684 25.9055 53.8346 26.0882 53.9062C26.3317 53.9993 26.5501 54.096 26.7434 54.1963C26.9368 54.293 27.1015 54.404 27.2376 54.5293C27.3736 54.651 27.4775 54.7925 27.5491 54.9536C27.6243 55.1147 27.6619 55.3063 27.6619 55.5283C27.6619 55.8005 27.601 56.0368 27.4793 56.2373C27.3611 56.4378 27.2018 56.6043 27.0012 56.7368C26.8007 56.8693 26.5698 56.9678 26.3084 57.0322C26.047 57.0967 25.7731 57.1289 25.4866 57.1289C24.9208 57.1289 24.4303 57.0197 24.0149 56.8013ZM34.458 57H33.5772V56.1299H33.5557C33.1905 56.7959 32.6247 57.1289 31.8584 57.1289C30.5479 57.1289 29.8926 56.3483 29.8926 54.7871V51.5H30.7681V54.6475C30.7681 55.8076 31.2121 56.3877 32.1001 56.3877C32.5298 56.3877 32.8825 56.2301 33.1582 55.915C33.4375 55.5964 33.5772 55.181 33.5772 54.6689V51.5H34.458V57ZM38.1121 57H37.2313V48.8574H38.1121V57ZM43.4366 56.9463C43.2289 57.0609 42.955 57.1182 42.6148 57.1182C41.6516 57.1182 41.17 56.5811 41.17 55.5068V52.252H40.2247V51.5H41.17V50.1572L42.0508 49.8726V51.5H43.4366V52.252H42.0508V55.3511C42.0508 55.7199 42.1135 55.9831 42.2388 56.1406C42.3642 56.2982 42.5718 56.377 42.8619 56.377C43.0839 56.377 43.2754 56.3161 43.4366 56.1943V56.9463ZM46.054 50.1035C45.8965 50.1035 45.7622 50.0498 45.6512 49.9424C45.5402 49.835 45.4847 49.6989 45.4847 49.5342C45.4847 49.3695 45.5402 49.2334 45.6512 49.126C45.7622 49.015 45.8965 48.9595 46.054 48.9595C46.2152 48.9595 46.3512 49.015 46.4622 49.126C46.5768 49.2334 46.6341 49.3695 46.6341 49.5342C46.6341 49.6917 46.5768 49.826 46.4622 49.937C46.3512 50.048 46.2152 50.1035 46.054 50.1035ZM46.4837 57H45.6029V51.5H46.4837V57ZM53.8223 57H52.9415V53.8633C52.9415 52.696 52.5154 52.1123 51.6632 52.1123C51.2227 52.1123 50.8575 52.2788 50.5675 52.6118C50.281 52.9412 50.1378 53.3584 50.1378 53.8633V57H49.2569V51.5H50.1378V52.4131H50.1593C50.5746 51.7184 51.1762 51.3711 51.9639 51.3711C52.5655 51.3711 53.0256 51.5662 53.3443 51.9565C53.663 52.3433 53.8223 52.9036 53.8223 53.6377V57ZM61.1717 56.5596C61.1717 58.5791 60.2049 59.5889 58.2713 59.5889C57.591 59.5889 56.9966 59.46 56.4881 59.2021V58.3213C57.1076 58.665 57.6984 58.8369 58.2606 58.8369C59.6141 58.8369 60.2909 58.1172 60.2909 56.6777V56.0762H60.2694C59.8504 56.778 59.2202 57.1289 58.3787 57.1289C57.6948 57.1289 57.1434 56.8854 56.7245 56.3984C56.3091 55.9079 56.1014 55.2508 56.1014 54.4272C56.1014 53.4927 56.3252 52.7497 56.7728 52.1982C57.224 51.6468 57.8399 51.3711 58.6204 51.3711C59.3617 51.3711 59.9113 51.6683 60.2694 52.2627H60.2909V51.5H61.1717V56.5596ZM60.2909 54.5132V53.7021C60.2909 53.2653 60.1423 52.8911 59.8451 52.5796C59.5514 52.2681 59.1844 52.1123 58.744 52.1123C58.1997 52.1123 57.7736 52.311 57.4657 52.7085C57.1577 53.1024 57.0037 53.6556 57.0037 54.3682C57.0037 54.9805 57.1506 55.471 57.4442 55.8398C57.7414 56.2051 58.1335 56.3877 58.6204 56.3877C59.1146 56.3877 59.5156 56.2122 59.8236 55.8613C60.1351 55.5104 60.2909 55.061 60.2909 54.5132ZM72.0677 57H68.0716V49.2979H68.974V56.1836H72.0677V57ZM78.2355 57H74.2394V49.2979H75.1417V56.1836H78.2355V57ZM81.3095 54.0889V57H80.4071V49.2979H82.5233C83.3469 49.2979 83.9843 49.4984 84.4354 49.8994C84.8902 50.3005 85.1176 50.8662 85.1176 51.5967C85.1176 52.3271 84.8651 52.9251 84.3602 53.3906C83.8589 53.8561 83.1804 54.0889 82.3246 54.0889H81.3095ZM81.3095 50.1143V53.2725H82.2548C82.8778 53.2725 83.3523 53.131 83.6781 52.8481C84.0075 52.5617 84.1722 52.1589 84.1722 51.6396C84.1722 50.6227 83.5707 50.1143 82.3676 50.1143H81.3095Z" fill="white"/>
</svg>
